# xmcd CD database file
#
# Track frame offsets:
#	150
#	22150
#	46450
#	67000
#	88575
#	97650
#	113850
#	136625
#	143975
#	164175
#	191325
#	203475
#	230550
#	247875
#	270850
#	282600
#	302475
#
# Disc length: 4390 seconds
#
# Revision: 0
# Processed by: cddbd v1.5.2PL0 Copyright (c) Steve Scherf et al.
# Submitted via: CDex 1.51
#
DISCID=ea112411
DTITLE=H.P. Neuber - Fantasy Lights
DYEAR=1995
DGENRE=New Age
TTITLE0=Das Meer
TTITLE1=Alles erschaffende Liebe
TTITLE2=Sehnsuchts-Träumerei
TTITLE3=Weites Hochland
TTITLE4=Elfen-Träumerei
TTITLE5=Urkraft
TTITLE6=Aus: Blütenreigen
TTITLE7=losgelöste Fetzen des Seins
TTITLE8=Neptun
TTITLE9=Aus: Das mystische Erblühen der Herzensblume
TTITLE10=Nimm das Leben an
TTITLE11=Aus: Zeitwirbel
TTITLE12=Lichtvolle Stille
TTITLE13=Syxoenergetica
TTITLE14=Freude am Sein
TTITLE15=Aus: Träume (2)
TTITLE16=Elfen-Freude
EXTD=YEAR: 1995
EXTT0=
EXTT1=
EXTT2=
EXTT3=
EXTT4=
EXTT5=
EXTT6=
EXTT7=
EXTT8=
EXTT9=
EXTT10=
EXTT11=
EXTT12=
EXTT13=
EXTT14=
EXTT15=
EXTT16=
PLAYORDER=
